<mxfile host="app.diagrams.net" modified="2020-10-26T09:00:03.937Z" agent="5.0 (Macintosh; Intel Mac OS X 10_15_7) AppleWebKit/537.36 (KHTML, like Gecko) Chrome/85.0.4183.121 Safari/537.36" etag="K8dWkH8Qu-U5y1g52ZkO" version="13.8.2" type="github">
  <diagram id="qWzJnLXtFNTfz9znzfuO" name="Page-1">
    <mxGraphModel dx="1186" dy="623" grid="1" gridSize="10" guides="1" tooltips="1" connect="1" arrows="1" fold="1" page="1" pageScale="1" pageWidth="827" pageHeight="1169" math="0" shadow="0">
      <root>
        <mxCell id="0" />
        <mxCell id="1" parent="0" />
        <mxCell id="CWn86cOfbMBoz73WVZl_-1" value="" style="rounded=0;whiteSpace=wrap;html=1;" vertex="1" parent="1">
          <mxGeometry x="90" y="190" width="280" height="320" as="geometry" />
        </mxCell>
        <mxCell id="CWn86cOfbMBoz73WVZl_-2" value="" style="rounded=0;whiteSpace=wrap;html=1;" vertex="1" parent="1">
          <mxGeometry x="450" y="190" width="280" height="320" as="geometry" />
        </mxCell>
        <mxCell id="CWn86cOfbMBoz73WVZl_-3" value="&lt;font style=&quot;font-size: 18px&quot;&gt;地方目录&lt;/font&gt;" style="rounded=0;whiteSpace=wrap;html=1;" vertex="1" parent="1">
          <mxGeometry x="250" y="380" width="100" height="100" as="geometry" />
        </mxCell>
        <mxCell id="CWn86cOfbMBoz73WVZl_-4" value="&lt;font style=&quot;font-size: 18px&quot;&gt;省级目录&lt;/font&gt;" style="rounded=0;whiteSpace=wrap;html=1;" vertex="1" parent="1">
          <mxGeometry x="110" y="380" width="110" height="100" as="geometry" />
        </mxCell>
        <mxCell id="CWn86cOfbMBoz73WVZl_-5" value="&lt;font style=&quot;font-size: 18px&quot;&gt;市大数据局Oracle数据库&lt;/font&gt;" style="rounded=0;whiteSpace=wrap;html=1;" vertex="1" parent="1">
          <mxGeometry x="480" y="412" width="210" height="50" as="geometry" />
        </mxCell>
        <mxCell id="CWn86cOfbMBoz73WVZl_-6" value="&lt;font style=&quot;font-size: 18px&quot;&gt;市共享目录&lt;/font&gt;" style="rounded=0;whiteSpace=wrap;html=1;" vertex="1" parent="1">
          <mxGeometry x="480" y="325" width="210" height="50" as="geometry" />
        </mxCell>
        <mxCell id="CWn86cOfbMBoz73WVZl_-7" value="" style="endArrow=classic;startArrow=classic;html=1;entryX=0.5;entryY=1;entryDx=0;entryDy=0;exitX=0.5;exitY=0;exitDx=0;exitDy=0;" edge="1" parent="1" source="CWn86cOfbMBoz73WVZl_-5" target="CWn86cOfbMBoz73WVZl_-6">
          <mxGeometry width="50" height="50" relative="1" as="geometry">
            <mxPoint x="390" y="440" as="sourcePoint" />
            <mxPoint x="440" y="390" as="targetPoint" />
            <Array as="points" />
          </mxGeometry>
        </mxCell>
        <mxCell id="CWn86cOfbMBoz73WVZl_-8" value="" style="verticalLabelPosition=bottom;verticalAlign=top;html=1;shape=mxgraph.basic.no_symbol" vertex="1" parent="1">
          <mxGeometry x="575" y="382" width="20" height="20" as="geometry" />
        </mxCell>
        <mxCell id="CWn86cOfbMBoz73WVZl_-9" value="两者未一一对应" style="text;html=1;strokeColor=none;fillColor=none;align=center;verticalAlign=middle;whiteSpace=wrap;rounded=0;" vertex="1" parent="1">
          <mxGeometry x="595" y="383" width="90" height="20" as="geometry" />
        </mxCell>
        <mxCell id="CWn86cOfbMBoz73WVZl_-10" value="" style="curved=1;endArrow=classic;html=1;entryX=0.5;entryY=1;entryDx=0;entryDy=0;" edge="1" parent="1" source="CWn86cOfbMBoz73WVZl_-12" target="CWn86cOfbMBoz73WVZl_-5">
          <mxGeometry width="50" height="50" relative="1" as="geometry">
            <mxPoint x="585" y="585" as="sourcePoint" />
            <mxPoint x="450" y="340" as="targetPoint" />
            <Array as="points">
              <mxPoint x="570" y="550" />
            </Array>
          </mxGeometry>
        </mxCell>
        <mxCell id="CWn86cOfbMBoz73WVZl_-11" value="" style="curved=1;endArrow=classic;html=1;entryX=1;entryY=0.5;entryDx=0;entryDy=0;exitX=0.5;exitY=0;exitDx=0;exitDy=0;" edge="1" parent="1" source="CWn86cOfbMBoz73WVZl_-12" target="CWn86cOfbMBoz73WVZl_-6">
          <mxGeometry width="50" height="50" relative="1" as="geometry">
            <mxPoint x="585" y="590" as="sourcePoint" />
            <mxPoint x="450" y="340" as="targetPoint" />
            <Array as="points">
              <mxPoint x="660" y="587" />
              <mxPoint x="710" y="460" />
            </Array>
          </mxGeometry>
        </mxCell>
        <mxCell id="CWn86cOfbMBoz73WVZl_-12" value="&lt;font style=&quot;font-size: 14px&quot;&gt;市县局级部门&lt;/font&gt;" style="rounded=1;whiteSpace=wrap;html=1;" vertex="1" parent="1">
          <mxGeometry x="420" y="587" width="120" height="30" as="geometry" />
        </mxCell>
        <mxCell id="CWn86cOfbMBoz73WVZl_-13" value="A公司&lt;br&gt;接入数据" style="text;html=1;strokeColor=none;fillColor=none;align=center;verticalAlign=middle;whiteSpace=wrap;rounded=0;" vertex="1" parent="1">
          <mxGeometry x="550" y="527" width="80" height="20" as="geometry" />
        </mxCell>
        <mxCell id="CWn86cOfbMBoz73WVZl_-14" value="B公司&lt;br&gt;编目" style="text;html=1;strokeColor=none;fillColor=none;align=center;verticalAlign=middle;whiteSpace=wrap;rounded=0;" vertex="1" parent="1">
          <mxGeometry x="670" y="527" width="80" height="20" as="geometry" />
        </mxCell>
        <mxCell id="CWn86cOfbMBoz73WVZl_-15" value="&lt;font style=&quot;font-size: 14px&quot;&gt;省厅级部门&lt;/font&gt;" style="rounded=1;whiteSpace=wrap;html=1;" vertex="1" parent="1">
          <mxGeometry x="169" y="587" width="120" height="30" as="geometry" />
        </mxCell>
        <mxCell id="CWn86cOfbMBoz73WVZl_-16" value="" style="curved=1;endArrow=classic;html=1;exitX=0.5;exitY=0;exitDx=0;exitDy=0;entryX=0.5;entryY=1;entryDx=0;entryDy=0;" edge="1" parent="1" source="CWn86cOfbMBoz73WVZl_-15" target="CWn86cOfbMBoz73WVZl_-4">
          <mxGeometry width="50" height="50" relative="1" as="geometry">
            <mxPoint x="400" y="380" as="sourcePoint" />
            <mxPoint x="450" y="330" as="targetPoint" />
            <Array as="points">
              <mxPoint x="170" y="540" />
            </Array>
          </mxGeometry>
        </mxCell>
        <mxCell id="CWn86cOfbMBoz73WVZl_-17" value="" style="curved=1;endArrow=classic;html=1;exitX=0.5;exitY=0;exitDx=0;exitDy=0;entryX=0.5;entryY=1;entryDx=0;entryDy=0;" edge="1" parent="1" source="CWn86cOfbMBoz73WVZl_-12" target="CWn86cOfbMBoz73WVZl_-3">
          <mxGeometry width="50" height="50" relative="1" as="geometry">
            <mxPoint x="400" y="380" as="sourcePoint" />
            <mxPoint x="450" y="330" as="targetPoint" />
            <Array as="points">
              <mxPoint x="410" y="580" />
              <mxPoint x="310" y="530" />
            </Array>
          </mxGeometry>
        </mxCell>
        <mxCell id="CWn86cOfbMBoz73WVZl_-18" value="可能经由&lt;br&gt;市大数据局" style="text;html=1;strokeColor=none;fillColor=none;align=center;verticalAlign=middle;whiteSpace=wrap;rounded=0;" vertex="1" parent="1">
          <mxGeometry x="344" y="527" width="70" height="20" as="geometry" />
        </mxCell>
        <mxCell id="CWn86cOfbMBoz73WVZl_-19" value="" style="endArrow=classic;startArrow=classic;html=1;exitX=1;exitY=0.5;exitDx=0;exitDy=0;entryX=0;entryY=0.5;entryDx=0;entryDy=0;" edge="1" parent="1" source="CWn86cOfbMBoz73WVZl_-15" target="CWn86cOfbMBoz73WVZl_-12">
          <mxGeometry width="50" height="50" relative="1" as="geometry">
            <mxPoint x="400" y="360" as="sourcePoint" />
            <mxPoint x="450" y="310" as="targetPoint" />
          </mxGeometry>
        </mxCell>
        <mxCell id="CWn86cOfbMBoz73WVZl_-20" value="&lt;font style=&quot;font-size: 24px&quot;&gt;省平台&lt;/font&gt;" style="text;html=1;strokeColor=none;fillColor=none;align=center;verticalAlign=middle;whiteSpace=wrap;rounded=0;" vertex="1" parent="1">
          <mxGeometry x="160" y="250" width="140" height="20" as="geometry" />
        </mxCell>
        <mxCell id="CWn86cOfbMBoz73WVZl_-21" value="&lt;font style=&quot;font-size: 24px&quot;&gt;市平台&lt;/font&gt;" style="text;html=1;strokeColor=none;fillColor=none;align=center;verticalAlign=middle;whiteSpace=wrap;rounded=0;" vertex="1" parent="1">
          <mxGeometry x="520" y="250" width="140" height="20" as="geometry" />
        </mxCell>
        <mxCell id="CWn86cOfbMBoz73WVZl_-22" value="" style="endArrow=classic;startArrow=classic;html=1;entryX=0;entryY=0.5;entryDx=0;entryDy=0;exitX=1.03;exitY=0.58;exitDx=0;exitDy=0;exitPerimeter=0;" edge="1" parent="1" source="CWn86cOfbMBoz73WVZl_-3" target="CWn86cOfbMBoz73WVZl_-5">
          <mxGeometry width="50" height="50" relative="1" as="geometry">
            <mxPoint x="360" y="437" as="sourcePoint" />
            <mxPoint x="450" y="280" as="targetPoint" />
          </mxGeometry>
        </mxCell>
        <mxCell id="CWn86cOfbMBoz73WVZl_-23" value="&lt;font style=&quot;font-size: 10px&quot;&gt;两者存在交集&lt;br&gt;&lt;br&gt;无包含关系&lt;/font&gt;" style="text;html=1;strokeColor=none;fillColor=none;align=center;verticalAlign=middle;whiteSpace=wrap;rounded=0;" vertex="1" parent="1">
          <mxGeometry x="379" y="427" width="70" height="20" as="geometry" />
        </mxCell>
      </root>
    </mxGraphModel>
  </diagram>
</mxfile>
